<?xml version="1.0" encoding="UTF-8" standalone="no"?>
<!DOCTYPE svg PUBLIC "-//W3C//DTD SVG 1.1//EN" "http://www.w3.org/Graphics/SVG/1.1/DTD/svg11.dtd">
<svg width="100%" height="100%" viewBox="0 0 1920 1280" version="1.1" xmlns="http://www.w3.org/2000/svg" xmlns:xlink="http://www.w3.org/1999/xlink" xml:space="preserve" xmlns:serif="http://www.serif.com/" style="fill-rule:evenodd;clip-rule:evenodd;stroke-linejoin:round;stroke-miterlimit:2;">
    <a href="javascript:top.moveRooms('b1rightcorridor')"><rect x="970.673" y="739.094" width="139.545" height="146.086" style="fill:rgb(235,235,235);fill-opacity:0;"/></a>
    <a href="javascript:top.moveRooms('b1outsidellmaindoors')"><rect x="956.5" y="1078.14" width="186.423" height="173.341" style="fill:rgb(235,235,235);fill-opacity:0;"/></a>
    <a href="javascript:top.moveRooms('blankcanvas')"><rect x="1164.02" y="880.76" width="132.177" height="112.529" style="fill:rgb(235,235,235);fill-opacity:0;"/></a>
    <a href="javascript:top.moveRooms('launchpad')"><rect x="1241.72" y="1022.99" width="143.341" height="138.429" style="fill:rgb(235,235,235);fill-opacity:0;"/></a>
    <g transform="matrix(0.0187687,-1.47698,1.29997,0.0165194,723.067,2938.05)">
        <a href="javascript:top.moveRooms('launchpad')"><path d="M1801.58,562.768L1190.05,562.768L1317.58,467.376L1764.16,467.376L1801.58,562.768Z" style="fill:rgb(235,235,235);fill-opacity:0;"/></a>
    </g>
    <g transform="matrix(0.0124221,-0.977543,0.59427,0.00755171,970.132,2112.34)">
        <a href="javascript:top.moveRooms('blankcanvas')"><path d="M1801.58,562.768L1190.05,562.768L1277.68,467.376L1770.93,467.376L1801.58,562.768Z" style="fill:rgb(235,235,235);fill-opacity:0;"/></a>
    </g>
    <g transform="matrix(-0.0117624,-0.925626,-0.59427,0.00755171,1134.07,2026.46)">
        <a href="javascript:top.moveRooms('readingroom')"><path d="M1801.58,562.768L1190.05,562.768L1277.68,467.376L1770.93,467.376L1801.58,562.768Z" style="fill:rgb(235,235,235);fill-opacity:0;"/></a>
    </g>
    <g transform="matrix(-0.0163456,-1.28629,-0.59427,0.00755171,1041.77,2620.48)">
        <a href="javascript:alert('This is Seminar Room 3. To see what the inside of an SR looks like, go to L1!')"><path d="M1801.58,562.768L1190.05,562.768L1263.32,467.376L1770.93,467.376L1801.58,562.768Z" style="fill:rgb(235,235,235);fill-opacity:0;"/></a>
    </g>
    <g transform="matrix(0.927191,0.0312872,-0.0328654,0.973961,18.8309,91.2348)">
        <a href="javascript:top.moveRooms('readingroom')"><rect x="868.042" y="780.656" width="137.442" height="123.738" style="fill:rgb(235,235,235);fill-opacity:0;"/></a>
    </g>
    <a href="javascript:top.moveRooms('b1incorridor')"><rect x="1092.92" y="685.901" width="66.181" height="55.743" style="fill:rgb(235,235,235);fill-opacity:0;"/></a>
</svg>
